<?xml version="1.0" standalone="no"?>
<!DOCTYPE svg PUBLIC "-//W3C//DTD SVG 20010904//EN"
 "http://www.w3.org/TR/2001/REC-SVG-20010904/DTD/svg10.dtd">
<svg version="1.0" xmlns="http://www.w3.org/2000/svg"
 width="980.000000pt" height="980.000000pt" viewBox="0 0 980.000000 980.000000"
 preserveAspectRatio="xMidYMid meet">

<g transform="translate(0.000000,980.000000) scale(0.100000,-0.100000)"
fill="currentColor" stroke="currentColor">
<path d="M4481 8654 c-54 -23 -213 -157 -386 -325 l-90 -87 -180 -60 c-335
-112 -559 -221 -848 -415 -712 -475 -1228 -1220 -1426 -2057 -65 -274 -91
-503 -91 -800 0 -458 80 -872 252 -1297 171 -426 412 -787 753 -1129 222 -223
429 -386 680 -533 l116 -69 -153 -96 -154 -96 -39 20 c-81 41 -111 25 -215
-114 -38 -50 -134 -172 -214 -271 -80 -99 -143 -181 -141 -183 2 -2 45 12 97
31 51 20 183 66 293 102 274 92 369 134 373 163 5 35 -27 119 -63 167 l-34 43
157 99 157 99 103 -47 c330 -154 678 -255 1058 -306 182 -24 646 -24 829 1
564 76 1099 277 1523 572 l64 44 36 -28 c48 -37 208 -142 217 -142 4 0 -36 47
-89 104 -53 57 -96 107 -95 112 0 5 39 38 86 74 113 85 418 388 520 517 437
550 692 1179 753 1863 13 148 13 463 0 610 -51 565 -242 1110 -562 1600 -16
25 -15 26 79 150 100 131 241 340 338 500 38 63 60 109 63 137 8 77 -14 65
-159 -79 -133 -132 -305 -276 -449 -377 l-75 -52 -84 93 c-470 520 -1044 875
-1696 1048 -341 91 -727 131 -1062 110 -98 -6 -195 -13 -217 -17 -45 -7 -48
-25 26 181 41 112 48 140 37 147 -20 13 -49 10 -88 -7z m799 -1029 c595 -92
1095 -336 1525 -747 58 -55 102 -105 98 -109 -9 -9 -47 -21 -664 -223 -619
-202 -743 -255 -925 -398 -45 -34 -118 -90 -163 -122 -201 -146 -338 -341
-444 -636 -25 -69 -57 -156 -71 -193 -62 -162 -143 -289 -237 -369 -53 -45
-146 -98 -171 -98 -7 0 11 13 39 28 110 57 199 155 270 297 41 80 49 100 144
360 55 153 97 235 167 335 59 83 161 190 235 246 58 44 59 44 27 44 -47 0 -87
25 -175 109 -79 76 -133 119 -330 258 -215 153 -296 269 -325 470 -21 149 -1
676 27 704 10 10 213 47 328 58 132 14 520 5 645 -14z m-2216 -742 c-73 -155
-153 -360 -182 -463 -23 -83 -26 -114 -26 -245 0 -134 2 -156 23 -208 40 -101
73 -133 263 -259 353 -233 431 -354 415 -638 -15 -259 -70 -435 -152 -491
-115 -79 -266 -55 -389 60 l-53 51 -7 -117 c-3 -65 -15 -194 -26 -288 -63
-544 20 -784 353 -1013 42 -29 186 -109 319 -178 133 -69 292 -158 353 -198
145 -97 415 -311 403 -320 -32 -24 -367 -230 -378 -233 -23 -6 -181 59 -330
134 -143 73 -367 220 -485 318 -829 689 -1180 1763 -915 2799 108 424 316 814
613 1148 69 77 233 238 244 238 1 0 -18 -44 -43 -97z m4285 -748 c172 -348
266 -713 287 -1101 l6 -131 -105 -72 c-138 -94 -205 -167 -261 -284 -24 -51
-49 -110 -55 -132 -10 -35 -21 -46 -93 -90 -45 -27 -122 -76 -172 -107 -49
-32 -92 -56 -94 -53 -3 3 23 50 56 106 34 55 60 104 57 109 -5 8 -198 -104
-305 -177 -73 -49 -140 -126 -180 -206 -22 -44 -40 -84 -40 -91 0 -9 -207
-144 -296 -193 -21 -12 -23 -9 -49 65 -68 195 -130 296 -278 456 -145 156
-266 228 -447 267 l-85 18 64 0 c142 2 284 -61 404 -180 52 -51 77 -71 77 -59
0 34 43 156 89 255 78 166 139 253 706 1020 440 594 443 597 575 748 l25 29
22 -29 c13 -15 54 -91 92 -168z m217 -1845 c-3 -21 -22 -92 -42 -157 -158
-527 -479 -1007 -898 -1345 l-98 -79 -40 63 c-63 100 -164 314 -203 428 -38
109 -125 409 -125 428 0 6 66 52 148 103 l147 92 95 -2 c112 -2 202 20 313 76
85 42 227 132 227 143 0 9 -86 20 -167 20 -34 0 -64 4 -67 8 -2 4 16 21 42 37
26 16 113 70 193 121 l146 93 64 -9 c58 -9 235 3 248 15 15 16 23 0 17 -35z
m-3521 -249 c28 -10 95 -37 149 -60 315 -132 691 -169 1026 -101 54 11 102 20
108 20 13 0 64 -116 111 -253 38 -111 96 -326 89 -331 -1 -2 -88 -57 -193
-123 -669 -423 -908 -573 -915 -573 -24 0 -172 296 -263 526 -89 225 -267 782
-267 834 0 46 35 78 85 79 11 0 43 -8 70 -18z m1516 -898 c19 -136 17 -548 -3
-663 -9 -47 -14 -87 -13 -88 2 -2 32 38 66 90 106 158 242 341 278 376 49 47
114 47 201 1 60 -32 184 -140 243 -212 l37 -45 -93 -55 c-548 -326 -1242 -446
-1877 -326 -58 11 -158 34 -223 51 -95 25 -116 33 -105 43 16 15 313 204 333
211 8 3 34 -13 62 -38 81 -74 88 -75 40 -8 -26 35 -47 69 -47 75 0 5 179 123
396 260 218 138 458 289 533 337 75 47 141 87 147 87 7 1 17 -38 25 -96z"/>
</g>
</svg>
