<?xml version="1.0" standalone="no"?>
<!DOCTYPE svg PUBLIC "-//W3C//DTD SVG 20010904//EN"
 "http://www.w3.org/TR/2001/REC-SVG-20010904/DTD/svg10.dtd">
<svg version="1.0" xmlns="http://www.w3.org/2000/svg"
 width="512.000000pt" height="512.000000pt" viewBox="0 0 512.000000 512.000000"
 preserveAspectRatio="xMidYMid meet">

<g transform="translate(0.000000,512.000000) scale(0.100000,-0.100000)"
fill="currentColor" stroke="currentColor">
<path d="M2091 5099 c-41 -10 -97 -32 -125 -47 -41 -23 -69 -30 -141 -36 -198
-16 -351 -103 -464 -267 l-37 -54 -80 -6 c-94 -7 -135 -19 -229 -68 -81 -41
-180 -135 -222 -209 -22 -38 -48 -63 -105 -102 -90 -60 -145 -120 -192 -210
-46 -88 -58 -131 -65 -224 l-6 -80 -58 -40 c-161 -110 -256 -282 -259 -471 -1
-58 -6 -76 -30 -115 -93 -147 -101 -376 -17 -545 l32 -65 -32 -65 c-84 -169
-76 -398 17 -545 24 -39 29 -57 30 -115 3 -189 98 -361 259 -471 l58 -40 6
-80 c7 -93 19 -136 65 -224 47 -90 102 -150 192 -210 57 -39 83 -64 105 -102
42 -74 141 -167 222 -210 86 -45 138 -60 234 -67 l75 -6 37 -54 c113 -163 273
-255 462 -266 69 -4 94 -10 141 -35 82 -43 119 -39 141 13 21 50 3 82 -66 119
-34 17 -84 57 -113 89 -103 111 -141 242 -120 414 7 48 9 52 66 89 l60 39 38
-45 c52 -60 131 -112 210 -138 94 -32 230 -25 318 14 l62 29 63 -29 c88 -40
223 -46 316 -14 81 27 160 79 210 138 l40 46 58 -41 c64 -45 71 -63 72 -175 3
-231 -153 -423 -373 -461 -87 -15 -174 0 -273 47 -45 22 -90 36 -113 36 -37 0
-222 -78 -235 -100 -17 -27 -7 -74 20 -97 33 -29 60 -26 153 19 l62 31 65 -32
c163 -81 356 -79 521 4 59 30 83 36 153 40 90 5 190 35 266 79 61 36 148 119
194 186 l37 55 75 6 c41 3 94 11 119 18 125 35 272 148 335 257 23 40 49 64
108 104 85 56 153 133 197 220 37 73 52 129 59 220 l6 74 58 40 c161 110 257
282 257 463 0 62 4 78 29 120 97 157 104 374 20 546 l-32 67 32 67 c84 170 76
396 -18 544 -24 39 -29 57 -30 118 -1 91 -15 148 -57 238 -40 84 -117 172
-201 229 l-58 40 -6 80 c-7 93 -19 136 -65 224 -47 90 -102 150 -192 210 -57
39 -83 64 -105 102 -42 74 -141 168 -222 209 -94 49 -135 61 -229 68 l-80 6
-37 54 c-112 162 -266 251 -458 266 -70 5 -100 13 -160 42 -94 46 -160 54
-190 24 -42 -42 -17 -112 46 -127 58 -14 146 -69 197 -125 103 -111 141 -242
120 -414 -7 -48 -9 -52 -66 -89 l-60 -39 -38 45 c-52 60 -131 112 -210 138
-94 32 -230 25 -317 -14 l-63 -29 -62 29 c-88 39 -217 45 -316 15 -77 -23
-169 -85 -218 -146 l-31 -38 -60 39 c-58 37 -60 41 -67 89 -21 172 17 303 120
414 136 147 327 179 521 87 90 -43 135 -46 202 -11 65 33 81 50 81 90 0 24 -7
39 -26 54 -33 26 -46 26 -100 -1 l-43 -21 -65 32 c-125 61 -270 76 -405 40z
m-378 -316 c-42 -85 -65 -196 -61 -291 l3 -72 -65 0 c-222 0 -423 -147 -485
-354 -10 -33 -18 -41 -51 -51 -21 -6 -64 -25 -94 -41 -30 -16 -58 -30 -62 -32
-14 -6 -38 103 -38 170 0 107 43 217 116 293 80 85 166 124 295 135 118 11
151 28 205 111 25 37 63 84 85 104 38 34 150 95 175 95 6 0 -5 -30 -23 -67z
m1743 38 c79 -37 132 -85 188 -170 54 -83 87 -100 205 -111 181 -16 298 -96
373 -256 40 -86 50 -199 24 -288 -9 -32 -20 -56 -24 -54 -4 2 -32 16 -62 32
-30 16 -73 35 -94 41 -33 10 -41 18 -51 51 -23 76 -68 150 -129 209 -97 94
-221 145 -356 145 l-65 0 3 72 c4 95 -19 206 -61 291 -18 37 -29 67 -23 67 6
0 39 -13 72 -29z m-1038 -495 c23 -8 58 -26 79 -40 48 -33 76 -33 132 3 68 42
114 54 195 49 83 -6 138 -30 195 -87 58 -58 82 -118 89 -216 l5 -84 -59 -55
-58 -54 -41 34 c-96 78 -226 101 -342 61 -51 -18 -55 -18 -105 0 -117 40 -247
17 -343 -61 l-41 -34 -57 53 c-57 53 -57 53 -57 112 1 83 16 141 54 198 36 54
93 99 153 121 50 18 150 18 201 0z m-748 -67 c55 -12 159 -76 182 -112 10 -16
13 -42 10 -93 l-4 -71 -62 -6 c-105 -10 -172 -41 -247 -116 -45 -45 -73 -84
-89 -122 -21 -52 -27 -58 -79 -79 -38 -16 -77 -44 -122 -89 -75 -75 -106 -142
-116 -248 l-6 -63 -51 0 c-28 0 -61 -3 -73 -6 -16 -4 -31 4 -62 36 -117 121
-133 307 -38 446 45 67 140 130 219 145 73 15 94 32 103 90 33 206 225 333
435 288z m2013 -22 c103 -47 184 -153 202 -266 9 -55 31 -77 86 -86 253 -40
380 -331 238 -544 -55 -82 -69 -90 -157 -83 l-72 5 0 36 c0 54 -26 146 -56
197 -36 61 -123 138 -187 164 -50 21 -56 27 -77 79 -16 38 -44 77 -89 122 -75
75 -142 106 -248 116 l-63 6 0 42 c0 23 -3 56 -6 72 -5 24 0 35 27 62 80 81
162 113 275 108 49 -3 87 -12 127 -30z m-2973 -159 c0 -58 18 -134 50 -213
l21 -52 -25 -50 c-35 -70 -56 -156 -56 -233 l0 -65 -72 3 c-95 4 -206 -19
-290 -61 -38 -18 -68 -29 -68 -23 0 25 61 137 95 175 20 22 67 60 104 85 83
54 100 87 111 205 4 47 17 110 28 139 20 52 80 141 95 142 4 0 7 -24 7 -52z
m3748 7 c47 -62 73 -136 82 -237 11 -118 28 -150 111 -204 37 -25 84 -63 104
-85 34 -38 95 -150 95 -175 0 -6 -30 5 -67 23 -85 42 -196 65 -291 61 l-72 -3
0 65 c0 78 -20 161 -56 231 l-25 51 21 52 c32 80 50 155 50 214 0 28 3 52 8
52 4 0 22 -20 40 -45z m-2527 -280 c19 -9 53 -36 77 -58 l42 -41 -6 -62 c-7
-64 10 -209 28 -249 16 -35 64 -52 96 -34 44 25 47 38 32 149 -21 159 5 226
106 276 65 32 122 29 190 -11 54 -32 75 -31 132 2 96 57 227 23 276 -72 55
-105 5 -341 -131 -628 -41 -86 -50 -97 -68 -92 -95 28 -195 28 -290 0 -18 -5
-26 6 -60 76 -42 85 -64 109 -103 109 -29 0 -72 -42 -72 -70 0 -12 19 -62 42
-111 l41 -90 -21 -21 -20 -21 -136 62 c-253 115 -460 169 -602 157 l-70 -5
-41 42 c-62 64 -77 101 -77 182 0 78 20 129 71 177 33 31 108 67 141 68 30 0
72 42 72 72 1 33 37 108 68 141 28 29 68 54 112 68 37 13 132 4 171 -16z
m1475 -3 c21 -11 51 -33 66 -49 31 -33 67 -108 68 -141 0 -30 42 -72 72 -72
33 -1 108 -37 141 -68 51 -48 71 -99 71 -177 0 -81 -15 -118 -77 -182 l-41
-42 -70 5 c-142 12 -349 -42 -602 -157 l-136 -62 -20 21 -21 20 62 137 c114
250 169 460 157 601 l-5 70 42 41 c68 66 115 84 198 79 30 -2 73 -13 95 -24z
m-2692 -490 c32 -6 45 -16 79 -65 l41 -58 -45 -39 c-61 -52 -113 -131 -139
-210 -32 -94 -25 -230 14 -317 l29 -63 -29 -62 c-39 -88 -46 -224 -14 -318 26
-79 78 -158 138 -210 l45 -38 -39 -60 c-37 -57 -41 -59 -89 -66 -172 -21 -303
17 -414 120 -147 136 -179 327 -87 521 46 96 46 130 0 226 -19 42 -41 105 -47
141 -37 218 113 438 338 492 56 14 160 16 219 6z m3898 -3 c230 -49 389 -272
351 -495 -6 -36 -28 -99 -47 -141 -46 -96 -46 -130 0 -226 91 -193 59 -386
-86 -520 -112 -105 -243 -142 -415 -121 -48 7 -52 9 -89 66 l-39 60 45 38 c60
52 112 131 138 210 32 94 25 230 -14 318 l-29 62 29 63 c39 87 46 223 14 317
-26 79 -78 158 -139 210 l-45 39 41 58 c32 46 48 59 74 64 57 11 155 10 211
-2z m-3387 -256 l53 -57 -34 -41 c-78 -96 -100 -207 -65 -324 l22 -71 -22 -71
c-35 -117 -13 -228 65 -324 l34 -41 -54 -58 -55 -59 -84 5 c-98 7 -158 31
-216 89 -57 57 -81 112 -87 195 -5 81 7 127 49 195 36 56 36 84 3 132 -37 55
-54 112 -54 181 1 105 46 192 129 249 56 38 116 55 199 56 l64 1 53 -57z
m2941 26 c103 -49 164 -141 172 -255 5 -81 -7 -127 -49 -195 -16 -25 -29 -56
-29 -69 0 -13 13 -44 29 -69 42 -68 54 -114 49 -195 -11 -166 -126 -272 -305
-284 l-82 -5 -55 59 -54 58 34 41 c79 97 102 229 60 343 -20 52 -20 52 0 105
42 113 19 245 -60 342 l-34 41 54 58 55 59 84 -5 c59 -4 98 -13 131 -29z
m-2456 -179 c105 -29 197 -64 323 -123 95 -45 108 -53 102 -71 -28 -96 -28
-196 0 -291 5 -18 -6 -27 -92 -68 -287 -136 -523 -186 -628 -131 -95 49 -129
180 -72 276 33 57 34 78 2 132 -39 66 -42 123 -12 188 25 55 57 86 112 106 41
16 173 7 265 -18z m1995 4 c95 -49 129 -180 72 -276 -33 -57 -34 -78 -2 -132
39 -67 43 -125 12 -189 -58 -118 -159 -141 -372 -87 -104 26 -195 60 -328 123
-95 45 -108 53 -102 71 3 12 11 49 17 84 10 59 4 136 -17 208 -6 18 7 26 102
71 296 139 510 183 618 127z m-1063 -58 c192 -57 274 -280 166 -449 -143 -223
-491 -152 -540 112 -40 215 165 400 374 337z m-397 -606 c17 -19 15 -24 -44
-154 -115 -253 -169 -460 -157 -602 l5 -70 -42 -41 c-64 -62 -101 -77 -182
-77 -78 0 -129 20 -177 71 -31 33 -67 108 -68 141 0 13 -11 34 -25 47 -13 14
-34 25 -47 25 -33 1 -108 37 -141 68 -51 48 -71 99 -71 177 0 81 15 118 77
182 l41 42 70 -5 c140 -12 363 46 596 155 69 33 130 59 136 60 6 1 19 -8 29
-19z m793 -41 c247 -112 458 -167 598 -155 l70 5 41 -42 c62 -64 77 -101 77
-182 0 -78 -20 -129 -71 -177 -33 -31 -108 -67 -141 -68 -30 0 -72 -42 -72
-72 -1 -33 -37 -108 -68 -141 -48 -51 -99 -71 -177 -71 -81 0 -118 15 -182 77
l-42 41 5 70 c12 141 -43 351 -157 601 -59 131 -61 136 -44 155 10 11 21 20
24 20 3 0 66 -27 139 -61z m-540 -81 c59 -10 136 -4 208 17 18 6 26 -7 71
-102 63 -133 97 -224 123 -328 54 -213 31 -314 -87 -372 -64 -31 -122 -27
-189 12 -54 32 -75 31 -132 -2 -67 -39 -141 -39 -207 2 -70 44 -90 88 -89 195
1 127 47 279 147 493 45 95 53 108 71 102 12 -3 49 -11 84 -17z m-1403 -258
l42 0 6 -63 c10 -106 41 -173 116 -248 45 -45 84 -73 122 -89 52 -21 58 -27
79 -77 26 -64 103 -151 164 -187 51 -30 143 -56 197 -56 l36 0 5 -72 c7 -88
-1 -102 -83 -157 -213 -142 -504 -15 -544 238 -9 58 -30 75 -103 90 -79 15
-174 78 -219 145 -95 139 -79 325 38 446 35 36 45 41 71 36 17 -3 50 -6 73 -6z
m3075 -31 c22 -22 52 -66 67 -97 24 -50 28 -69 28 -147 0 -77 -4 -98 -27 -147
-49 -105 -155 -185 -267 -203 -58 -9 -75 -30 -90 -103 -15 -79 -78 -174 -145
-219 -139 -95 -323 -79 -444 38 -38 36 -43 46 -38 72 3 16 6 49 6 73 l0 44 38
0 c54 0 147 26 198 56 61 36 138 123 164 187 21 50 27 56 77 77 64 26 151 103
187 164 30 51 56 144 56 198 l0 37 58 4 c31 2 65 4 75 5 9 1 35 -16 57 -39z
m-3690 -165 c41 -8 107 -14 148 -12 l72 3 0 -65 c0 -78 20 -161 55 -231 l26
-50 -32 -82 c-21 -56 -33 -107 -37 -159 -2 -43 -8 -78 -11 -78 -14 1 -74 93
-93 142 -11 29 -24 92 -28 139 -11 118 -28 151 -111 205 -37 25 -84 63 -104
85 -34 38 -95 150 -95 175 0 6 30 -5 68 -23 37 -18 101 -40 142 -49z m4342 2
c-38 -80 -86 -133 -171 -190 -83 -54 -100 -86 -111 -204 -4 -48 -17 -111 -28
-140 -20 -52 -79 -141 -94 -142 -5 0 -8 24 -8 53 0 58 -18 133 -50 213 l-21
52 25 51 c36 70 56 153 56 231 l0 65 72 -3 c94 -4 206 19 288 60 36 18 67 30
68 25 2 -4 -10 -36 -26 -71z m-2566 -478 c65 -29 178 -31 252 -4 52 20 52 20
105 0 113 -42 245 -19 342 60 l41 34 58 -54 59 -55 -5 -84 c-7 -98 -31 -158
-89 -216 -57 -57 -112 -81 -195 -87 -81 -5 -127 7 -195 49 -25 16 -56 29 -69
29 -13 0 -44 -13 -69 -29 -68 -42 -114 -54 -195 -49 -83 6 -138 30 -195 87
-58 58 -82 118 -89 216 l-5 84 59 55 58 54 41 -34 c23 -18 64 -44 91 -56z
m-1296 -42 c30 -16 73 -35 94 -41 33 -10 41 -18 51 -51 23 -76 68 -150 129
-209 95 -93 222 -145 356 -145 l65 0 -3 -72 c-4 -95 19 -206 61 -290 18 -38
29 -68 23 -68 -25 0 -137 61 -175 95 -22 20 -60 67 -85 104 -54 83 -87 100
-205 111 -129 11 -215 50 -295 135 -73 76 -116 186 -116 293 0 67 24 176 38
170 4 -2 32 -16 62 -32z m3286 -23 c26 -88 16 -201 -24 -287 -75 -160 -192
-240 -373 -256 -118 -11 -151 -28 -205 -111 -25 -37 -63 -84 -85 -104 -38 -34
-150 -95 -175 -95 -6 0 5 30 23 68 42 84 65 195 61 290 l-3 72 65 0 c222 0
423 147 485 354 10 34 17 41 56 53 24 7 67 26 94 42 28 16 53 29 57 30 4 1 15
-24 24 -56z"/>
</g>
</svg>
