<?xml version="1.0" standalone="no"?>
<!DOCTYPE svg PUBLIC "-//W3C//DTD SVG 20010904//EN"
 "http://www.w3.org/TR/2001/REC-SVG-20010904/DTD/svg10.dtd">
<svg version="1.0" xmlns="http://www.w3.org/2000/svg"
 width="348.000000pt" height="292.000000pt" viewBox="0 0 348.000000 292.000000"
 preserveAspectRatio="xMidYMid meet">

<g transform="translate(0.000000,292.000000) scale(0.100000,-0.100000)"
fill="currentColor" stroke="currentColor">
<path d="M1765 2319 c-164 -19 -346 -75 -539 -163 -78 -36 -79 -36 -61 -56 18
-19 18 -23 3 -70 -9 -28 -15 -50 -14 -50 1 0 19 9 41 20 22 11 48 20 60 20 16
-1 11 -8 -25 -40 -25 -22 -53 -40 -63 -40 -17 0 -17 -2 3 -29 l20 -30 -29 -58
c-30 -58 -74 -183 -68 -190 2 -2 41 18 86 43 45 26 85 44 88 40 3 -3 -4 -65
-15 -138 -30 -179 -39 -252 -62 -462 -11 -99 -22 -181 -25 -184 -2 -2 -19 -7
-37 -11 l-33 -7 -3 -78 -3 -78 33 7 c18 4 42 9 53 12 11 3 18 3 15 1 -74 -72
-114 -98 -148 -98 -34 0 -39 -3 -51 -36 -7 -19 -10 -38 -7 -41 10 -10 139 19
256 57 547 178 1062 688 1165 1154 56 252 -54 433 -297 491 -82 20 -243 26
-343 14z m-388 -339 c-32 -28 -97 -44 -82 -20 9 15 77 49 98 50 13 0 9 -8 -16
-30z m500 -158 c45 -24 83 -86 83 -138 0 -83 -60 -227 -136 -324 -76 -99 -294
-294 -310 -278 -9 9 159 656 195 751 9 22 12 23 68 17 32 -4 77 -17 100 -28z
m-602 -977 c-26 -21 -75 -34 -75 -20 0 7 74 44 90 45 9 0 3 -10 -15 -25z m120
-5 c-19 -21 -45 -27 -45 -11 0 7 36 26 59 30 2 1 -4 -8 -14 -19z"/>
<path d="M2855 2306 c-125 -29 -267 -103 -375 -194 l-35 -30 0 -134 c-1 -152
-14 -202 -93 -372 l-46 -99 46 -42 c90 -82 199 -115 378 -115 l115 0 -95 -96
c-107 -108 -258 -226 -388 -303 -48 -28 -93 -55 -100 -60 -10 -6 -9 -14 5 -39
l18 -31 31 30 c23 23 39 30 60 27 29 -3 29 -3 -23 -43 -42 -31 -52 -43 -47
-60 9 -27 14 -31 22 -19 10 16 52 28 52 15 0 -6 -10 -16 -22 -22 -13 -6 -25
-13 -27 -15 -8 -7 42 -54 57 -54 20 0 164 78 266 144 203 132 436 341 539 485
112 154 185 336 214 531 17 115 10 208 -23 289 -13 34 -21 41 -44 41 -15 0
-33 6 -39 14 -6 8 -24 19 -39 25 -16 7 -36 26 -47 43 l-18 31 26 -7 c14 -3 33
-9 44 -13 15 -6 16 -4 5 9 -7 8 -40 28 -75 44 -54 24 -77 28 -172 31 -68 1
-133 -3 -170 -11z m343 -150 c14 -8 22 -46 11 -46 -22 0 -78 44 -79 62 0 7 51
-5 68 -16z m66 -102 c3 -8 3 -14 0 -14 -12 0 -44 21 -44 29 0 14 38 1 44 -15z
m-287 -174 c34 -22 63 -82 63 -131 -1 -99 -59 -163 -161 -175 -185 -21 -294
130 -176 246 80 79 201 106 274 60z m-452 -1005 c-39 -31 -66 -34 -39 -4 19
22 55 40 64 32 2 -2 -9 -15 -25 -28z"/>
<path d="M1054 2283 c-441 -68 -849 -426 -954 -837 -44 -173 -48 -296 -14
-431 16 -60 51 -136 41 -88 -7 33 2 29 50 -23 38 -40 43 -50 43 -93 0 -46 3
-50 47 -85 152 -119 305 -129 683 -44 74 16 137 32 139 34 3 3 -5 11 -17 20
-12 8 -22 26 -22 40 0 24 -14 32 -25 14 -8 -13 -65 -13 -65 0 0 5 14 17 31 25
27 15 29 18 15 28 -15 11 -15 16 -1 56 12 35 13 51 3 82 -6 22 -15 39 -19 39
-5 0 -43 -12 -86 -27 -107 -36 -257 -39 -319 -6 -56 30 -111 93 -125 145 -42
153 149 457 370 588 71 42 202 100 226 100 26 0 24 18 -5 59 -17 22 -30 43
-30 46 0 2 18 14 40 25 39 20 49 41 31 68 -6 10 -10 10 -21 -3 -12 -14 -100
-23 -100 -9 0 13 22 44 31 44 24 0 69 42 69 64 0 12 16 41 36 64 29 34 35 48
32 80 l-3 38 -81 -13z m-94 -143 c-15 -22 -30 -30 -50 -30 -19 0 -28 4 -25 13
7 16 55 45 78 46 17 1 17 -1 -3 -29z m-130 -138 c0 -13 -46 -35 -62 -30 -8 3
-2 11 17 21 34 18 45 21 45 9z m-610 -1039 c0 -33 -15 -28 -39 13 -32 54 -28
74 9 39 17 -16 30 -39 30 -52z m680 -103 c-15 -22 -30 -30 -51 -30 -40 0 -37
14 9 38 55 30 67 28 42 -8z"/>
</g>
</svg>
