<?xml version="1.0" standalone="no"?>
<!DOCTYPE svg PUBLIC "-//W3C//DTD SVG 20010904//EN"
 "http://www.w3.org/TR/2001/REC-SVG-20010904/DTD/svg10.dtd">
<svg version="1.0" xmlns="http://www.w3.org/2000/svg"
 width="600.000000pt" height="600.000000pt" viewBox="0 0 600.000000 600.000000"
 preserveAspectRatio="xMidYMid meet">

<g transform="translate(0.000000,600.000000) scale(0.100000,-0.100000)"
fill="currentColor" stroke="currentColor">
<path d="M300 3950 l0 -30 2640 0 2640 0 0 30 0 30 -2640 0 -2640 0 0 -30z"/>
<path d="M565 3830 c-138 -21 -222 -104 -255 -253 -17 -72 -3 -140 41 -209 46
-72 96 -102 253 -154 167 -55 187 -70 194 -146 4 -59 -17 -102 -71 -142 -43
-32 -144 -29 -218 5 -65 31 -99 70 -130 152 -39 102 -51 77 -64 -133 -3 -52
-9 -108 -12 -124 l-5 -28 31 18 c29 17 35 17 138 1 297 -47 469 13 551 191 48
105 29 255 -41 330 -31 34 -112 72 -257 123 -155 54 -185 78 -177 145 9 87 95
139 186 115 55 -15 134 -71 166 -119 14 -20 25 -32 25 -27 0 11 26 165 36 208
l6 29 -26 -17 c-24 -16 -28 -16 -79 3 -50 19 -187 44 -225 41 -9 -1 -39 -5
-67 -9z"/>
<path d="M1497 3799 c-11 -6 -113 -9 -261 -7 l-244 3 -21 -124 c-12 -68 -20
-126 -17 -129 3 -3 13 11 21 32 22 52 80 113 121 126 66 22 64 31 64 -282 0
-316 -5 -354 -51 -371 -16 -6 -29 -17 -29 -24 0 -10 39 -13 175 -13 143 0 175
3 175 14 0 8 -10 16 -22 20 -50 12 -53 29 -56 354 -4 336 -6 325 62 302 41
-13 99 -74 122 -127 9 -21 18 -33 21 -27 3 10 -34 255 -40 261 -1 1 -10 -3
-20 -8z"/>
<path d="M3643 3791 c-63 -21 -115 -60 -154 -114 l-29 -40 0 -201 0 -201 30
-51 c16 -28 50 -70 75 -92 77 -68 109 -75 368 -80 154 -3 227 -1 227 7 0 5
-11 21 -25 35 -24 25 -25 28 -25 176 0 163 11 213 49 225 54 17 10 25 -134 25
-118 0 -155 -3 -155 -13 0 -7 10 -17 23 -22 21 -10 22 -15 25 -161 2 -137 1
-153 -17 -175 -16 -19 -28 -24 -65 -23 -62 1 -111 41 -153 125 -64 125 -64
279 -2 406 36 76 75 103 145 103 80 0 145 -37 191 -107 20 -32 39 -60 40 -62
10 -15 9 19 -2 129 -8 69 -14 126 -14 128 -1 1 -12 -4 -25 -13 -21 -14 -30
-14 -95 0 -97 20 -213 19 -278 -4z"/>
<path d="M4428 3793 c-154 -2 -248 -7 -248 -13 0 -6 4 -10 9 -10 5 0 17 -7 25
-16 14 -13 16 -59 16 -349 l0 -334 -25 -19 c-14 -11 -25 -25 -25 -31 0 -8 78
-11 260 -13 143 -1 267 -2 277 -2 12 -1 25 29 54 134 22 74 39 141 39 148 0
24 -16 11 -29 -23 -49 -137 -228 -230 -308 -161 l-28 24 -3 166 -3 166 53 0
c67 0 108 -24 132 -79 18 -38 36 -54 36 -31 0 11 -26 194 -35 248 -7 38 -25
43 -25 7 0 -44 -32 -65 -100 -65 l-60 0 0 69 c0 63 2 71 26 90 34 26 94 27
150 2 47 -22 110 -91 119 -132 7 -31 25 -40 25 -12 0 9 -10 67 -21 130 -20
104 -23 113 -43 111 -11 -2 -132 -4 -268 -5z"/>
<path d="M4780 3786 c0 -8 9 -18 20 -21 43 -14 45 -31 48 -437 3 -427 0 -459
-49 -486 -63 -36 -40 -42 171 -42 193 0 200 1 200 20 0 11 -6 20 -14 20 -8 0
-24 12 -35 26 -19 25 -21 40 -21 205 0 166 1 179 19 189 11 5 22 10 24 10 21
0 170 -304 182 -372 6 -32 4 -38 -19 -53 -14 -10 -26 -24 -26 -31 0 -12 38
-14 210 -14 173 0 210 2 210 14 0 8 -11 17 -25 20 -30 8 -45 36 -91 169 -35
101 -95 223 -162 327 -21 33 -30 56 -23 58 26 9 113 85 136 120 64 98 47 223
-38 269 -28 16 -69 18 -374 21 -298 3 -343 1 -343 -12z m478 -106 c60 -36 67
-111 18 -193 -25 -43 -107 -108 -153 -122 l-23 -6 0 141 c0 81 5 150 11 161
22 41 95 51 147 19z"/>
<path d="M1550 3783 c0 -4 12 -17 28 -29 l27 -22 0 -327 0 -327 -27 -23 c-16
-13 -28 -29 -28 -35 0 -6 54 -10 155 -10 131 0 155 2 155 15 0 8 -7 15 -15 15
-32 0 -45 54 -45 189 0 118 2 131 19 141 17 9 24 3 54 -48 48 -77 107 -214
107 -246 0 -15 -8 -30 -20 -36 -47 -25 -14 -30 195 -30 118 0 215 3 215 6 0 4
-11 17 -25 30 -31 29 -31 46 4 164 l28 95 46 -2 c80 -2 162 -74 186 -161 12
-41 -8 -102 -33 -102 -9 0 -16 -7 -16 -15 0 -13 33 -15 235 -15 244 0 259 3
213 40 -23 18 -23 21 -26 310 -2 184 1 290 7 286 18 -11 321 -443 336 -479 25
-60 14 -127 -20 -127 -8 0 -15 -7 -15 -15 0 -12 17 -15 95 -15 54 0 95 4 95
10 0 5 -11 21 -25 34 l-26 26 3 326 3 326 28 22 c15 12 27 25 27 29 0 4 -45 7
-100 7 -55 0 -100 -3 -100 -6 0 -3 14 -19 30 -34 30 -28 30 -29 30 -139 0 -61
-2 -111 -5 -111 -2 0 -36 47 -75 105 -67 100 -82 137 -60 150 6 3 10 13 10 21
0 12 -31 14 -185 14 -102 0 -185 -3 -185 -6 0 -4 11 -17 25 -30 l25 -23 0
-321 c0 -306 -4 -360 -30 -360 -13 0 -34 63 -120 374 -79 286 -90 336 -70 336
6 0 10 7 10 15 0 13 -23 15 -145 15 -80 0 -145 -2 -145 -5 0 -3 7 -16 15 -28
14 -21 7 -46 -91 -346 -58 -178 -109 -320 -113 -315 -4 5 -18 38 -31 74 -27
78 -70 165 -118 240 l-34 54 23 16 c48 31 87 71 103 104 21 44 21 125 0 155
-33 46 -64 51 -344 51 -143 0 -260 -3 -260 -7z m381 -86 c66 -50 38 -157 -58
-217 -72 -46 -73 -45 -73 78 0 132 10 152 73 152 23 0 49 -6 58 -13z m588
-211 c17 -66 29 -121 27 -123 -2 -3 -16 3 -30 12 -14 9 -43 22 -64 28 l-39 12
31 108 c17 62 33 102 37 95 4 -7 21 -67 38 -132z"/>
<path d="M1700 2849 c-9 -5 -119 -9 -260 -8 l-245 1 -17 -99 c-9 -54 -20 -110
-22 -125 -7 -38 10 -35 23 4 18 50 60 99 105 119 81 37 76 57 76 -286 0 -333
-4 -358 -56 -371 -14 -4 -23 -11 -21 -18 3 -8 57 -11 177 -11 174 0 213 8 150
32 -17 6 -34 23 -40 38 -6 16 -10 150 -10 331 0 335 -4 319 63 290 39 -17 88
-68 115 -121 19 -35 21 -37 21 -15 1 29 -34 238 -40 245 -3 2 -11 0 -19 -6z"/>
<path d="M3730 2840 c-95 -17 -164 -59 -210 -128 l-30 -45 0 -199 c0 -221 2
-231 74 -315 76 -88 178 -112 468 -113 156 0 181 7 137 41 -24 18 -24 20 -24
195 l0 176 35 29 34 29 -157 0 c-98 0 -157 -4 -157 -10 0 -5 4 -10 9 -10 5 0
17 -7 25 -16 13 -13 16 -42 16 -158 0 -130 -2 -146 -21 -170 -16 -21 -29 -26
-63 -26 -63 0 -117 42 -155 123 -73 152 -59 356 33 464 83 98 256 48 324 -94
19 -40 36 -43 28 -5 -3 15 -8 61 -11 102 -10 120 -13 131 -35 118 -14 -9 -42
-8 -123 5 -113 18 -128 19 -197 7z"/>
<path d="M4430 2821 c-88 -27 -171 -102 -190 -170 -23 -83 -5 -169 47 -223 16
-17 71 -45 142 -73 133 -52 134 -52 150 -82 31 -60 -8 -134 -81 -153 -102 -28
-218 47 -262 170 -13 35 -26 59 -29 54 -3 -5 0 -76 6 -157 10 -136 12 -147 30
-141 10 3 72 -2 137 -12 99 -14 128 -15 172 -6 125 29 225 106 248 194 15 52
8 134 -14 177 -28 53 -68 80 -188 127 -135 52 -163 77 -154 134 8 51 49 84 98
77 60 -8 110 -39 145 -90 17 -26 33 -52 36 -59 2 -7 7 -10 11 -6 7 6 -11 228
-19 236 -2 2 -12 -1 -24 -7 -15 -8 -36 -7 -83 4 -67 16 -137 18 -178 6z"/>
<path d="M1760 2795 c0 -8 7 -15 15 -15 8 0 22 -11 30 -24 14 -21 16 -65 13
-336 l-3 -312 -28 -24 c-16 -13 -25 -29 -22 -34 8 -12 302 -14 309 -2 3 5 -8
19 -24 31 l-30 22 0 215 0 215 98 -3 97 -3 3 -203 2 -203 -30 -30 c-16 -17
-30 -35 -30 -40 0 -5 67 -9 155 -9 92 0 155 4 155 10 0 5 -11 20 -25 34 l-25
25 0 317 0 316 30 28 c16 15 26 30 23 34 -3 3 -75 6 -160 6 -124 0 -153 -3
-153 -14 0 -7 9 -16 20 -19 27 -7 40 -46 40 -118 l0 -59 -100 0 -100 0 0 68
c0 70 17 112 46 112 8 0 14 7 14 15 0 13 -24 15 -160 15 -136 0 -160 -2 -160
-15z"/>
<path d="M2520 2795 c0 -8 4 -15 9 -15 5 0 17 -7 25 -16 14 -13 16 -58 16
-339 l0 -324 -25 -19 c-47 -38 -33 -42 130 -42 163 0 177 4 130 42 l-25 19 0
320 0 320 25 25 c14 14 25 29 25 34 0 6 -63 10 -155 10 -131 0 -155 -2 -155
-15z"/>
<path d="M2870 2800 c0 -5 11 -21 25 -34 l26 -26 -3 -321 c-3 -319 -3 -321
-25 -339 -41 -33 -28 -40 67 -40 72 0 90 3 90 15 0 8 -9 19 -20 25 -28 15 -31
49 -28 335 l3 260 161 -220 c89 -121 169 -234 178 -252 24 -47 20 -89 -9 -119
-14 -14 -25 -29 -25 -34 0 -6 41 -10 95 -10 74 0 95 3 95 14 0 7 -10 20 -22
28 -23 15 -23 17 -26 321 -2 253 0 312 12 341 8 20 22 36 30 36 9 0 16 7 16
15 0 12 -18 15 -100 15 -82 0 -100 -3 -100 -15 0 -8 7 -15 15 -15 34 0 46 -43
43 -156 l-3 -109 -72 107 c-70 102 -85 139 -63 153 6 3 10 13 10 21 0 12 -31
14 -185 14 -111 0 -185 -4 -185 -10z"/>
<path d="M300 2645 l0 -35 395 0 395 0 0 35 0 35 -395 0 -395 0 0 -35z"/>
<path d="M4780 2645 l0 -35 460 0 460 0 0 35 0 35 -460 0 -460 0 0 -35z"/>
</g>
</svg>
